<svg width="82" height="81" viewBox="0 0 82 81" fill="none" xmlns="http://www.w3.org/2000/svg">
<path d="M1.00002 48.9076C1.41086 48.2128 2.0121 47.9456 2.8221 47.9773C3.95945 48.0241 5.10013 47.989 6.32934 47.989C6.32934 46.7514 6.32934 45.5874 6.32934 44.425C6.32934 43.129 6.78361 42.6697 8.05289 42.6647C9.22197 42.6647 10.3911 42.6647 11.6052 42.6647V45.3168H9.04994V47.9472H14.2991V42.7148H16.9563V47.9339H22.2839V45.3202H19.7119V42.673C21.0881 42.673 22.4142 42.638 23.7369 42.6864C24.5619 42.7148 24.9912 43.2893 25.0045 44.258C25.0212 45.4738 25.0045 46.6896 25.0045 47.9472H54.315V18.0606C54.315 16.3404 54.6607 15.9913 56.3675 15.9913H79.0209C80.6259 15.9913 80.9933 16.3638 80.9933 17.9721C80.9933 38.0212 80.9978 58.0703 81.0067 78.1195C81.0067 78.9545 80.813 79.5958 80.0564 80.0017H1.00002V48.9076ZM78.2844 77.2994V37.4022H57.0389V77.2994H78.2844ZM78.2994 34.6565V18.7153H57.0573V34.6565H78.2994ZM3.68221 77.2911H27.645V58.7312H3.68221V77.2911ZM30.3723 77.2777H40.9674V58.7312H30.3723V77.2777ZM43.7231 58.7161V77.2777H54.2682V58.7161H43.7231ZM54.2649 55.9487V50.6979H30.3973V55.9487H54.2649ZM3.68389 55.9337H27.6099V50.723H3.68389V55.9337Z" fill="#E1633A"/>
<path d="M1.00002 19.5336C2.91563 17.5912 4.81955 15.6372 6.76356 13.7249C7.01074 13.4828 7.45834 13.4059 7.82743 13.3375C8.19653 13.269 8.54223 13.3241 8.98815 13.3241V12.4122C8.98815 8.87047 8.98815 5.32872 8.98815 1.78697C8.98815 0.450884 9.43073 0.0032959 10.7635 0.0032959C14.0436 0.0032959 17.3242 0.0032959 20.6054 0.0032959C21.8848 0.0032959 22.3307 0.449212 22.334 1.75357C22.3407 5.26748 22.3407 8.78251 22.334 12.2987V13.1721C22.4543 13.2456 22.501 13.299 22.5394 13.2924C23.8755 13.1003 24.774 13.7934 25.6325 14.717C26.9235 16.1098 28.2963 17.4276 29.6558 18.7553C29.8875 18.9653 30.07 19.2239 30.1901 19.5126C30.3102 19.8013 30.365 20.113 30.3506 20.4254C30.3222 21.5444 30.3505 22.665 30.3372 23.784C30.3188 24.8328 29.8361 25.3272 28.799 25.3272C20.0499 25.3272 11.3007 25.3311 2.55155 25.3389C1.79666 25.3389 1.3307 25.0049 0.996674 24.3819L1.00002 19.5336ZM27.5798 22.6316C27.9139 21.2605 27.5915 20.2567 26.5377 19.3849C25.4838 18.5131 24.5937 17.4276 23.5799 16.4923C23.2647 16.2086 22.8626 16.0402 22.4392 16.0147C17.9077 15.9835 13.3767 15.9835 8.8462 16.0147C8.44816 16.0395 8.07077 16.2005 7.77732 16.4706C6.67672 17.5044 5.69804 18.6768 4.53898 19.6438C3.48514 20.5156 3.60037 21.531 3.72897 22.64L27.5798 22.6316ZM19.595 13.279V2.72558H11.7154V13.279H19.595Z" fill="#E1633A"/>
<path d="M35.6749 0.0350342H38.3337V0.978646C38.3337 8.88384 38.3292 16.794 38.3203 24.7093C38.3203 25.2771 38.4523 25.5443 39.0151 25.7865C41.2079 26.7084 42.2601 28.442 42.3319 30.7968C42.4004 33.0765 42.1649 33.3237 39.9053 33.3237C37.7191 33.3237 35.5346 33.3237 33.3484 33.3237C32.1042 33.3237 31.695 32.8694 31.6432 31.6269C31.5464 29.272 32.171 27.181 34.3889 26.1155C35.583 25.5443 35.6966 24.8495 35.6916 23.7506C35.6532 16.1783 35.6715 8.60604 35.6715 1.0371L35.6749 0.0350342ZM34.3655 30.568H39.6147C39.5011 29.0515 38.4155 28.0077 37.021 27.9927C35.6264 27.9777 34.5425 28.9964 34.3655 30.568Z" fill="#E1633A"/>
<path d="M45.0141 0.0367432H47.6863V0.972006C47.6863 5.34436 47.6863 9.71838 47.6746 14.0907C47.6746 14.6318 47.8166 14.8857 48.3427 15.1112C50.4286 15.9947 51.5342 17.6163 51.6445 19.8843C51.6712 20.3783 51.6712 20.8734 51.6445 21.3674C51.601 22.1373 51.1234 22.645 50.3535 22.6517C47.6713 22.6729 44.9902 22.6729 42.3102 22.6517C41.9785 22.6594 41.6571 22.5364 41.4153 22.3093C41.1735 22.0822 41.0306 21.7691 41.0175 21.4375C40.8004 18.747 41.4651 16.2185 44.61 14.9542C44.8254 14.869 44.9958 14.3947 44.9974 14.1008C45.0225 9.75846 45.0141 5.40615 45.0141 1.05885V0.0367432ZM43.7148 19.9411H48.9589C48.8771 18.3779 47.7498 17.3307 46.2684 17.3374C44.934 17.3458 43.6029 18.5833 43.7098 19.9411H43.7148Z" fill="#E1633A"/>
<path d="M8.9798 53.3618C8.98776 53.1866 8.95991 53.0117 8.89795 52.8476C8.83599 52.6836 8.74123 52.5339 8.61945 52.4078C8.49767 52.2816 8.35145 52.1816 8.18971 52.1139C8.02797 52.0462 7.85412 52.0122 7.67879 52.014C7.32529 52.0109 6.98497 52.148 6.73235 52.3953C6.47973 52.6426 6.33541 52.9799 6.33101 53.3334C6.33979 53.6756 6.47597 54.0022 6.71289 54.2494C6.94981 54.4965 7.27042 54.6463 7.61198 54.6695C7.78773 54.6737 7.96258 54.6432 8.12651 54.5797C8.29044 54.5162 8.44023 54.421 8.5673 54.2995C8.69437 54.178 8.79622 54.0327 8.867 53.8717C8.93779 53.7108 8.97612 53.5375 8.9798 53.3618ZM13.0315 52.0257C12.678 52.0176 12.3356 52.15 12.0796 52.3939C11.8235 52.6377 11.6745 52.9732 11.6653 53.3267C11.6709 53.6803 11.8131 54.0179 12.0622 54.2689C12.3113 54.5199 12.6479 54.6646 13.0014 54.6728C13.3419 54.6691 13.6678 54.5339 13.9109 54.2954C14.154 54.057 14.2955 53.7338 14.3058 53.3935C14.3177 53.2187 14.2936 53.0433 14.2349 52.8782C14.1763 52.713 14.0845 52.5617 13.965 52.4335C13.8456 52.3053 13.7011 52.2029 13.5405 52.1328C13.38 52.0626 13.2067 52.0262 13.0315 52.0257ZM19.6435 53.3618C19.6514 53.1868 19.6236 53.0121 19.5617 52.8483C19.4999 52.6844 19.4052 52.535 19.2836 52.409C19.162 52.283 19.0159 52.1831 18.8544 52.1155C18.6929 52.0479 18.5192 52.0139 18.3441 52.0157C18.1693 52.0139 17.9959 52.0468 17.8338 52.1125C17.6718 52.1782 17.5244 52.2753 17.4002 52.3983C17.2759 52.5213 17.1773 52.6677 17.11 52.8291C17.0427 52.9904 17.008 53.1635 17.008 53.3384C17.0162 53.6788 17.1518 54.0038 17.3881 54.2491C17.6244 54.4943 17.9441 54.642 18.284 54.6628C18.6364 54.6691 18.977 54.5359 19.2316 54.2922C19.4862 54.0485 19.6343 53.7141 19.6435 53.3618ZM24.9878 53.3317C24.9872 53.1574 24.952 52.9849 24.8844 52.8242C24.8168 52.6635 24.718 52.5178 24.5938 52.3955C24.4696 52.2731 24.3224 52.1766 24.1607 52.1114C23.9991 52.0462 23.8261 52.0137 23.6517 52.0157C23.4832 52.0143 23.316 52.0463 23.1597 52.1096C23.0035 52.173 22.8613 52.2665 22.7412 52.3848C22.6212 52.5032 22.5256 52.644 22.46 52.7993C22.3945 52.9547 22.3602 53.1214 22.3591 53.2899C22.3524 53.465 22.3805 53.6397 22.4419 53.8038C22.5033 53.968 22.5967 54.1182 22.7167 54.246C22.8366 54.3737 22.9808 54.4763 23.1407 54.5479C23.3007 54.6194 23.4732 54.6585 23.6484 54.6628C24.0008 54.6594 24.338 54.5192 24.5889 54.2717C24.8398 54.0243 24.9846 53.689 24.9928 53.3367L24.9878 53.3317Z" fill="#E1633A"/>
<path d="M59.7111 42.6847H62.2614V47.9556H59.7111V42.6847Z" fill="#E1633A"/>
<path d="M62.2747 29.3254H59.7311V24.0696H62.2747V29.3254Z" fill="#E1633A"/>
<path d="M15.6068 74.6757C13.0833 74.6757 10.5597 74.6757 8.0362 74.6757C6.80533 74.6757 6.32767 74.203 6.326 72.9788C6.326 69.6486 6.326 66.319 6.326 62.9899C6.326 61.8392 6.78862 61.3482 7.91929 61.3465C13.0955 61.3365 18.2729 61.3365 23.4513 61.3465C24.5102 61.3465 24.9978 61.8225 25.0029 62.8713C25.0218 66.2783 25.0218 69.6865 25.0029 73.0957C25.0029 74.2047 24.4818 74.6707 23.3327 74.674C20.7574 74.6807 18.1821 74.6757 15.6068 74.6757ZM9.03325 64.0504V71.9651H22.2856V64.0504H9.03325Z" fill="#E1633A"/>
<path d="M35.7333 65.3615H38.2903V70.6123H35.7333V65.3615Z" fill="#E1633A"/>
<path d="M48.9222 70.6206H46.3736V65.3715H48.9222V70.6206Z" fill="#E1633A"/>
<path d="M44.9473 54.6393H39.7098V52.0439H44.9473V54.6393Z" fill="#E1633A"/>
<path d="M8.9798 53.3617C8.97018 53.7152 8.8208 54.0505 8.56441 54.294C8.30801 54.5376 7.96552 54.6696 7.61198 54.661C7.27042 54.6379 6.94981 54.4881 6.71289 54.2409C6.47597 53.9938 6.33979 53.6672 6.33101 53.325C6.33541 52.9715 6.47973 52.6341 6.73235 52.3868C6.98497 52.1395 7.32529 52.0024 7.67879 52.0056C7.85486 52.0037 8.02943 52.038 8.19176 52.1062C8.35409 52.1744 8.50071 52.2752 8.62261 52.4022C8.74451 52.5293 8.8391 52.68 8.90053 52.845C8.96196 53.01 8.98894 53.1859 8.9798 53.3617Z" fill="#E1633A"/>
<path d="M13.0315 52.0256C13.2069 52.0259 13.3803 52.0621 13.5411 52.1322C13.7018 52.2022 13.8465 52.3045 13.9661 52.4328C14.0857 52.561 14.1778 52.7124 14.2365 52.8777C14.2952 53.0429 14.3193 53.2184 14.3075 53.3934C14.2971 53.7337 14.1556 54.0569 13.9125 54.2953C13.6694 54.5338 13.3436 54.669 13.0031 54.6727C12.6496 54.6645 12.313 54.5198 12.0639 54.2688C11.8148 54.0179 11.6725 53.6802 11.667 53.3266C11.6762 52.9734 11.8249 52.6382 12.0806 52.3944C12.3364 52.1506 12.6782 52.018 13.0315 52.0256Z" fill="#E1633A"/>
<path d="M19.6435 53.3617C19.6343 53.7146 19.4858 54.0496 19.2304 54.2933C18.9751 54.5371 18.6336 54.6699 18.2807 54.6627C17.9407 54.6419 17.621 54.4943 17.3847 54.249C17.1485 54.0038 17.0128 53.6788 17.0047 53.3383C17.0047 53.1635 17.0393 52.9904 17.1066 52.829C17.1739 52.6677 17.2726 52.5213 17.3968 52.3983C17.5211 52.2753 17.6685 52.1781 17.8305 52.1124C17.9925 52.0468 18.1659 52.0138 18.3408 52.0156C18.5162 52.0134 18.6902 52.047 18.8521 52.1144C19.014 52.1819 19.1605 52.2816 19.2825 52.4077C19.4044 52.5337 19.4994 52.6834 19.5615 52.8474C19.6235 53.0115 19.6514 53.1865 19.6435 53.3617Z" fill="#E1633A"/>
<path d="M24.9928 53.3366C24.9872 53.6912 24.843 54.0296 24.5911 54.2792C24.3393 54.5289 23.9997 54.6701 23.645 54.6727C23.4699 54.6684 23.2973 54.6294 23.1374 54.5578C22.9774 54.4863 22.8333 54.3836 22.7133 54.2559C22.5934 54.1282 22.5 53.9779 22.4386 53.8138C22.3772 53.6497 22.349 53.475 22.3557 53.2999C22.3568 53.1313 22.3911 52.9646 22.4567 52.8093C22.5223 52.654 22.6178 52.5131 22.7379 52.3948C22.8579 52.2764 23.0002 52.1829 23.1564 52.1196C23.3126 52.0562 23.4798 52.0243 23.6484 52.0256C23.823 52.0225 23.9965 52.0541 24.1588 52.1184C24.3211 52.1828 24.4691 52.2787 24.5941 52.4006C24.7191 52.5226 24.8188 52.6681 24.8872 52.8287C24.9556 52.9894 24.9915 53.162 24.9928 53.3366Z" fill="#E1633A"/>
</svg>
